<svg width="29" height="38" viewBox="0 0 29 38" fill="none" xmlns="http://www.w3.org/2000/svg">
<path fill-rule="evenodd" clip-rule="evenodd" d="M14.3671 0C6.45479 0 0 6.45479 0 14.3671C0 22.2795 6.45479 28.7342 14.3671 28.7342C22.2795 28.7342 28.7342 22.2795 28.7342 14.3671C28.7342 6.45479 22.2795 0 14.3671 0ZM20.8219 12.4932H16.2411L14.7836 8.01644C14.6795 7.6 14.0548 7.6 13.9507 8.01644L12.4932 12.4932H7.91233C7.49589 12.4932 7.28767 13.0137 7.6 13.2219L11.3479 15.9288L9.89041 20.4055C9.7863 20.8219 10.3068 21.1342 10.6192 20.8219L14.3671 18.1151L18.1151 20.8219C18.4274 21.1342 18.9479 20.8219 18.7397 20.4055L17.2822 15.9288L21.1342 13.2219C21.4466 13.0137 21.2384 12.4932 20.8219 12.4932ZM8.43277 38L6.87113 32.274C6.76702 31.8575 6.24647 31.5452 5.83003 31.6493L0.104004 33.2109L3.85195 26.652C6.35058 28.7342 9.47387 30.0877 12.8054 30.4L8.43277 38ZM22.9042 31.6493C22.3836 31.5452 21.9672 31.8575 21.759 32.274L20.1973 38L15.8247 30.4C19.2603 30.0877 22.3836 28.7342 24.8822 26.652L28.6302 33.2109L22.9042 31.6493Z" fill="#C0C0C0"/>
<mask id="mask0" mask-type="alpha" maskUnits="userSpaceOnUse" x="0" y="0" width="29" height="29">
<path fill-rule="evenodd" clip-rule="evenodd" d="M0 14.3671C0 6.45479 6.45479 0 14.3671 0C22.2795 0 28.7342 6.45479 28.7342 14.3671C28.7342 22.2795 22.2795 28.7342 14.3671 28.7342C6.45479 28.7342 0 22.2795 0 14.3671ZM16.2411 12.4932H20.8219C21.2384 12.4932 21.4466 13.0137 21.1342 13.2219L17.2822 15.9288L18.7397 20.4055C18.9479 20.8219 18.4274 21.1342 18.1151 20.8219L14.3671 18.1151L10.6192 20.8219C10.3068 21.1342 9.7863 20.8219 9.89041 20.4055L11.3479 15.9288L7.6 13.2219C7.28767 13.0137 7.49589 12.4932 7.91233 12.4932H12.4932L13.9507 8.01644C14.0548 7.6 14.6795 7.6 14.7836 8.01644L16.2411 12.4932Z" fill="#FFDF00"/>
</mask>
<g mask="url(#mask0)">
<rect x="13.4617" y="-2" width="6.00683" height="30.6313" transform="rotate(28.1722 13.4617 -2)" fill="#ECECEC"/>
<rect x="23.4617" y="2" width="3.93492" height="30.6313" transform="rotate(28.1722 23.4617 2)" fill="#B1AEAE"/>
<rect x="26.4617" y="4" width="5.36144" height="30.6313" transform="rotate(28.1722 26.4617 4)" fill="#ECECEC"/>
</g>
</svg>
